<?xml version="1.0" encoding="UTF-8" standalone="no"?>
<!DOCTYPE svg PUBLIC "-//W3C//DTD SVG 1.1//EN"
"http://www.w3.org/Graphics/SVG/1.1/DTD/svg11.dtd">
<svg viewBox="0 0 934 1210" version="1.1" xmlns="http://www.w3.org/2000/svg" xmlns:xlink="http://www.w3.org/1999/xlink">
<defs>
<style type="text/css"><![CDATA[
.g1_1{
fill: #E7E8E9;
}
.g2_1{
fill: #231F20;
}
.g3_1{
fill: none;
stroke: #231F20;
stroke-width: 0.7638889;
stroke-linecap: butt;
stroke-linejoin: miter;
}
.g4_1{
fill: none;
stroke: #BDBEC1;
stroke-width: 0.7638889;
stroke-linecap: butt;
stroke-linejoin: miter;
}
.g5_1{
fill: none;
stroke: #231F20;
stroke-width: 0.7638889;
stroke-linecap: round;
stroke-linejoin: miter;
stroke-dasharray: 1,5;
}
.g6_1{
fill: #FFFFFF;
}
.g7_1{
fill: none;
stroke: #E2E3E5;
stroke-width: 0.7638889;
stroke-linecap: butt;
stroke-linejoin: miter;
stroke-miterlimit: 4;
}
.g8_1{
fill: #E2E3E5;
}
]]></style>
</defs>
<path d="M809.6,1009.8l11,0l0,-36.9l-11,0l0,36.9Z" class="g1_1" />
<path d="M182.5,1083l-166.1,0l0,-18.4l166.1,0l0,18.4Z" class="g2_1" />
<path d="M919.5,807.2l-165.8,0l0,-18.5l165.8,0l0,18.5Z" class="g1_1" />
<path d="M185.5,1083l162.1,-0.1l1,-18.2l-163.2,0l0.1,18.3Z" class="g1_1" />
<path d="M346.9,1082.9l164.9,0l0,-17.9l-164.9,0l0,17.9Z" class="g2_1" />
<path d="M345.9,1046.2l165.9,0l0,-17.2l-165.9,0l0,17.2Z" class="g1_1" />
<path d="M676.7,74.8l154.2,0l0,-18.3l-154.2,0l0,18.3Z" class="g1_1" />
<path d="M126.2,111.3l11.3,0l0,-18l-11.3,0l0,18Z" class="g1_1" />
<path d="M874.4,129.5l11,0l0,-17.7l-11,0l0,17.7Z" class="g1_1" />
<path d="M16.4,129.6l11.3,0l0,-18l-11.3,0l0,18Z" class="g1_1" />
<path d="M274.7,166.2l10,0l0,-18l-10,0l0,18Z" class="g1_1" />
<path d="M346.2,110.9l110,0l0,-17.6l-110,0l0,17.6Z" class="g1_1" />
<path d="M16.3,111.7l110,0l0,-18.4L16.2,93.4l0.1,18.3Z" class="g1_1" />
<path d="M281.6,1137.9l285.4,0l0,-18.2l-285.4,0l0,18.2Z" class="g1_1" />
<path d="M282,1174.6l285.2,0l0,-18.2l-285.2,0l0,18.2Z" class="g1_1" />
<path d="M622.5,1028.8l10.5,0l0,-19l-10.5,0l0,19Z" class="g1_1" />
<path d="M710.4,1028.8l11,0l0,-19l-11,0l0,19Z" class="g1_1" />
<path d="M798.2,1028.8l11,0l0,-19l-11,0l0,19Z" class="g1_1" />
<path d="M148.4,148.1l165.1,0l0,-18.3l-165.1,0l0,18.3Z" class="g1_1" />
<path d="M346.5,129.8l11,0l0,-18.3l-11,0l0,18.3Z" class="g1_1" />
<path d="M456.5,111.5l11,0l0,-18.4l-11,0l0,18.4Z" class="g1_1" />
<path d="M709.4,129.8l11,0l0,-18.3l-11,0l0,18.3Z" class="g1_1" />
<path d="M753.5,129.8l11,0l0,-18.3l-11,0l0,18.3Z" class="g1_1" />
<path d="M523.7,1028.8l21.7,0l0,-19l-21.7,0l0,19Z" class="g1_1" />
<path d="M181.1,1046.2l166.1,0l0,-17.2l-166.1,0l0,17.2Z" class="g2_1" />
<path d="M16.5,1046.2l165.2,0l0,-17.8l-165.2,0l0,17.8Z" class="g1_1" />
<path d="M16.2,991.4l12,0l0,-18.1l-12,0l0,18.1Z" class="g1_1" />
<path d="M489.9,239.8l429.6,0l0,-18.3l-429.6,0l0,18.3Z" class="g1_1" />
<path d="M632.6,239.8l143.1,0l0,-18.3l-143.1,0l0,18.3Z" class="g2_1" />
<path d="M379.6,148.1l539.9,0l0,-18.3l-539.9,0l0,18.3Z" class="g1_1" />
<path d="M16.5,184.8l903.2,0l0,-18.3l-903.2,0l0,18.3Z" class="g1_1" />
<path d="M126.5,184.6l110,0l0,-18.3l-110,0l0,18.3Z" class="g2_1" />
<path d="M566.2,56.8l297.2,0l0,-18.5l-297.2,0l0,18.5Z" class="g1_1" />
<path d="M489.7,276.5l430,0l0,-18.3l-430,0l0,18.3Z" class="g1_1" />
<path d="M489.6,313.2l430,0l0,-18.4l-430,0l0,18.4Z" class="g1_1" />
<path d="M15.7,221.5l903.8,0l0,-18.3l-903.8,0l0,18.3Z" class="g1_1" />
<path d="M16,368.2l903.5,0l0,-18.4L16,349.8l0,18.4Z" class="g1_1" />
<path d="M16,404.8l903.4,0l0,-18.3L16,386.5l0,18.3Z" class="g1_1" />
<path d="M16,441.5l903.4,0l0,-18.3L16,423.2l0,18.3Z" class="g1_1" />
<path d="M16,478.1l903.2,0l0,-18.3L16,459.8l0,18.3Z" class="g1_1" />
<path d="M16,514.8l903.2,0l0,-18.3L16,496.5l0,18.3Z" class="g1_1" />
<path d="M16,551.5l903.5,0l0,-18.4L16,533.1l0,18.4Z" class="g1_1" />
<path d="M16,588.1l903.5,0l0,-18.3L16,569.8l0,18.3Z" class="g1_1" />
<path d="M16,624.8l903.2,0l0,-18.3L16,606.5l0,18.3Z" class="g1_1" />
<path d="M16,661.5l903.4,0l0,-18.4L16,643.1l0,18.4Z" class="g1_1" />
<path d="M16,698.1l903.4,0l0,-18.3L16,679.8l0,18.3Z" class="g1_1" />
<path d="M16,734.8l903.5,0l0,-18.3L16,716.5l0,18.3Z" class="g1_1" />
<path d="M16,771.4l737.3,0l0,-18.3L16,753.1l0,18.3Z" class="g1_1" />
<path d="M16,881.4l903.4,0l0,-18.3L16,863.1l0,18.3Z" class="g1_1" />
<path d="M16,918.1l903.4,0l0,-18.3L16,899.8l0,18.3Z" class="g1_1" />
<path d="M569.5,1046.5l75.3,-0.1l-0.1,-17.6l-75.2,0.1l0,17.6Z" class="g1_1" />
<path d="M569.5,1083.1l75.4,0l0,-18.3l-75.4,0l0,18.3Z" class="g1_1" />
<path d="M569.4,1119.7l53.1,0.1l0,-18.3l-53.1,-0.1l0,18.3Z" class="g1_1" />
<path d="M569.3,1156.4l53.5,0l0,-18.3l-53.5,0l0,18.3Z" class="g1_1" />
<path d="M774.6,1156.4l22.8,0.3l0,-18.4l-22.8,-0.2l0,18.3Z" class="g1_1" />
<path d="M774.7,1119.7l22.7,0l0,-18.3l-22.7,0l0,18.3Z" class="g1_1" />
<path d="M775.1,1083.1l22.3,0l0,-18.3l-22.5,0l0.2,18.3Z" class="g1_1" />
<path d="M774.9,1046.5l22.5,0.1l0,-17.8l-22.5,0.1l0,17.6Z" class="g1_1" />
<path d="M15.9,1028.8l42.7,0l0.1,-19l-42.7,0l-0.1,19Z" class="g1_1" />
<path d="M138.4,1028.7l54.9,0l0.2,-18.9l-54.9,0l-0.2,18.9Z" class="g1_1" />
<path d="M424.6,1028.8l43.6,0l0,-19.1l-43.6,0l0,19.1Z" class="g1_1" />
<path d="M105.5,1009.8l10.7,0l0,-36.7l-10.7,0l0,36.7Z" class="g1_1" />
<path d="M193.2,1009.8l11,0l0,-36.7l-11,0l0,36.7Z" class="g1_1" />
<path d="M281.2,1009.8l11,0l0,-36.7l-11,0l0,36.7Z" class="g1_1" />
<path d="M369.3,1009.8l11,0l0,-36.7l-11,0l0,36.7Z" class="g1_1" />
<path d="M457.3,1009.8l11,0l0,-36.7l-11,0l0,36.7Z" class="g1_1" />
<path d="M545.3,1009.8l11.1,0l0,-36.7l-11.1,0l0,36.7Z" class="g1_1" />
<path d="M633.4,1009.8l11,0l0,-36.7l-11,0l0,36.7Z" class="g1_1" />
<path d="M721.7,1009.8l11,0l0,-36.7l-11,0l0,36.7Z" class="g1_1" />
<path d="M16,954.8l903.5,0l0,-18.4L16,936.4l0,18.4Z" class="g1_1" />
<path d="M16,808.1l704.3,0l0,-18.3L16,789.8l0,18.3Z" class="g1_1" />
<path d="M16,844.8l903.6,0l0,-18.4L16,826.4l0,18.4Z" class="g1_1" />
<path d="M456.7,826.4l10.7,0l0,-73.3l-10.7,0l0,73.3Z" class="g1_1" />
<path d="M863.4,20.5l0,36" class="g3_1" />
<path d="M566.3,74.9l264.7,0" class="g3_1" />
<path d="M566.3,56.5l353.2,0" class="g3_1" />
<path d="M754,74.9l0,18.2" class="g3_1" />
<path d="M831,56.5l0,36.6" class="g3_1" />
<path d="M676.8,56.6l0,36.6" class="g3_1" />
<path d="M863.4,38.2l56.6,0l0,-18.3l-56.6,0l0,18.3Z" class="g2_1" />
<path d="M566.3,38.2l353.6,0" class="g3_1" />
<path d="M599.2,20.3l0,36.2" class="g3_1" />
<path d="M115.4,129.9l0,36.6" class="g3_1" />
<path d="M148.4,129.9l0,36.6" class="g3_1" />
<path d="M214.4,147.9l0,18.6" class="g3_1" />
<path d="M247.4,148l0,18.4" class="g3_1" />
<path d="M313.5,129.8l0,36.7" class="g3_1" />
<path d="M346.5,129.8l0,36.7" class="g3_1" />
<path d="M379.5,129.8l0,36.7" class="g3_1" />
<path d="M778.4,129.8l0,36.7" class="g3_1" />
<path d="M742.2,129.8l0,36.6" class="g3_1" />
<path d="M709.8,148.1l0,18.3" class="g3_1" />
<path d="M676.8,148.1l0,18.3" class="g3_1" />
<path d="M643.8,148.1l0,18.3" class="g3_1" />
<path d="M610.7,148.1l0,18.3" class="g3_1" />
<path d="M577.7,148.1l0,18.3" class="g3_1" />
<path d="M544.7,148.1l0,18.3" class="g3_1" />
<path d="M511.7,148.1l0,18.3" class="g3_1" />
<path d="M478.7,148.1l0,18.3" class="g3_1" />
<path d="M445.6,148.1l0,18.3" class="g3_1" />
<path d="M412.6,148.1l0,18.3" class="g3_1" />
<path d="M346.6,93.1l0,36.7" class="g3_1" />
<path d="M16,111.4l110,0" class="g3_1" />
<path d="M126,111.4l220.5,0" class="g3_1" />
<path d="M346.7,111.4l572.7,0" class="g3_1" />
<path d="M17.7,129.8l902,0" class="g3_1" />
<path d="M15.8,148.1l903.6,0" class="g3_1" />
<path d="M16.1,166.4l903.4,0" class="g3_1" />
<path d="M16.1,184.8l903.4,0" class="g3_1" />
<path d="M15.8,221.4l903.6,0" class="g3_1" />
<path d="M489.6,239.8l429.8,0" class="g3_1" />
<path d="M16,313.1l903.5,0" class="g3_1" />
<path d="M16,331.4l903.5,0" class="g3_1" />
<path d="M15.9,753.1l903.6,0" class="g3_1" />
<path d="M16,734.8l875,0" class="g3_1" />
<path d="M670.8,752.3l220.1,0" class="g3_1" />
<path d="M670.8,735.5l220.1,0" class="g3_1" />
<path d="M16.1,771.4l903.4,0" class="g3_1" />
<path d="M16.1,826.4l903.7,0" class="g3_1" />
<path d="M16.1,844.8l903.3,0" class="g3_1" />
<path d="M15.9,899.8l903.5,0" class="g3_1" />
<path d="M16.1,918.1l903.3,0" class="g3_1" />
<path d="M16,973.1l903.5,0" class="g3_1" />
<path d="M16,991.4l903.4,0" class="g3_1" />
<path d="M16,1009.8l903.5,0" class="g3_1" />
<path d="M16,1046.4l903.4,0" class="g3_1" />
<path d="M16,1064.8l901.5,0" class="g3_1" />
<path d="M59.1,1083.1l860.3,0" class="g3_1" />
<path d="M566.2,1101.4l353.2,0" class="g3_1" />
<path d="M281.9,1119.8l637.8,0" class="g3_1" />
<path d="M277.6,1138.1l605,0" class="g3_1" />
<path d="M281.4,1156.5l638.1,-0.1" class="g3_1" />
<path d="M16.4,1119.8l264.9,0" class="g4_1" />
<path d="M16.4,1138.1l265.1,0" class="g4_1" />
<path d="M16.5,1156.4l264.7,0" class="g4_1" />
<path d="M456.6,93.2l0,18" class="g3_1" />
<path d="M357.6,111.8l0,18" class="g3_1" />
<path d="M467.7,93.2l0,18" class="g3_1" />
<path d="M49.3,184.8l0,36.6" class="g3_1" />
<path d="M236.5,166.4l0,55" class="g3_1" />
<path d="M346.6,166.4l0,55" class="g3_1" />
<path d="M269.6,184.8l0,36.6" class="g3_1" />
<path d="M379.6,184.8l0,36.6" class="g3_1" />
<path d="M566.7,184.8l0,36.6" class="g3_1" />
<path d="M643.7,166.4l0,55" class="g3_1" />
<path d="M676.8,184.8l0,36.6" class="g3_1" />
<path d="M753.8,184.8l0,36.6" class="g3_1" />
<path d="M830.8,166.4l0,55" class="g3_1" />
<path d="M489.7,184.8l0,36.6" class="g3_1" />
<path d="M159.5,184.8l0,36.6" class="g3_1" />
<path d="M126.5,166.4l0,55" class="g3_1" />
<path d="M478.7,221.4l0,91.7" class="g3_1" />
<path d="M489.7,221.4l0,91.7" class="g3_1" />
<path d="M522.7,239.8l0,73.3" class="g3_1" />
<path d="M611.4,239.8l0,72.5" class="g5_1" />
<path fill-rule="evenodd" d="M604.8,239.8c0,-0.1,0.1,-0.2,0.2,-0.3c0,-0.1,0.1,-0.1,0.2,-0.1c0.1,0,0.2,0,0.3,0.1c0.1,0.1,0.1,0.2,0.1,0.3c0,0.1,0,0.2,-0.1,0.2c-0.1,0.1,-0.2,0.1,-0.3,0.1c-0.1,0,-0.2,0,-0.2,-0.1c-0.1,0,-0.2,-0.1,-0.2,-0.2Z" class="g2_1" />
<path fill-rule="evenodd" d="M604.8,313.1c0,-0.1,0.1,-0.2,0.2,-0.3c0,-0.1,0.1,-0.1,0.2,-0.1c0.1,0,0.2,0,0.3,0.1c0.1,0.1,0.1,0.2,0.1,0.3c0,0.1,0,0.2,-0.1,0.3c-0.1,0,-0.2,0.1,-0.3,0.1c-0.1,0,-0.2,-0.1,-0.2,-0.1c-0.1,-0.1,-0.2,-0.2,-0.2,-0.3Z" class="g2_1" />
<path d="M632.7,221.4l0,91.7" class="g3_1" />
<path d="M665.8,239.8l0,73.3" class="g3_1" />
<path d="M754.5,239.8l0,72.5" class="g5_1" />
<path fill-rule="evenodd" d="M747.9,239.8c0,-0.1,0.1,-0.2,0.1,-0.3c0.1,-0.1,0.2,-0.1,0.3,-0.1c0.1,0,0.2,0,0.3,0.1c0,0.1,0.1,0.2,0.1,0.3c0,0.1,-0.1,0.2,-0.1,0.2c-0.1,0.1,-0.2,0.1,-0.3,0.1c-0.1,0,-0.2,0,-0.3,-0.1c0,0,-0.1,-0.1,-0.1,-0.2Z" class="g2_1" />
<path fill-rule="evenodd" d="M747.9,313.1c0,-0.1,0.1,-0.2,0.1,-0.3c0.1,-0.1,0.2,-0.1,0.3,-0.1c0.1,0,0.2,0,0.3,0.1c0,0.1,0.1,0.2,0.1,0.3c0,0.1,-0.1,0.2,-0.1,0.3c-0.1,0,-0.2,0.1,-0.3,0.1c-0.1,0,-0.2,-0.1,-0.3,-0.1c0,-0.1,-0.1,-0.2,-0.1,-0.3Z" class="g2_1" />
<path d="M775.8,221.4l0,91.7" class="g3_1" />
<path d="M808.8,239.8l0,73.3" class="g3_1" />
<path d="M896,239.8l0,72.5" class="g5_1" />
<path fill-rule="evenodd" d="M891,239.8c0,-0.1,0,-0.2,0.1,-0.3c0.1,-0.1,0.2,-0.1,0.3,-0.1c0.1,0,0.2,0,0.2,0.1c0.1,0.1,0.2,0.2,0.2,0.3c0,0.1,-0.1,0.2,-0.2,0.2c0,0.1,-0.1,0.1,-0.2,0.1c-0.1,0,-0.2,0,-0.3,-0.1c-0.1,0,-0.1,-0.1,-0.1,-0.2Z" class="g2_1" />
<path fill-rule="evenodd" d="M891,313.1c0,-0.1,0,-0.2,0.1,-0.3c0.1,-0.1,0.2,-0.1,0.3,-0.1c0.1,0,0.2,0,0.2,0.1c0.1,0.1,0.2,0.2,0.2,0.3c0,0.1,-0.1,0.2,-0.2,0.3c0,0,-0.1,0.1,-0.2,0.1c-0.1,0,-0.2,-0.1,-0.3,-0.1C891,313.3,891,313.2,891,313.1Z" class="g2_1" />
<path d="M67.6,313.1l0,440" class="g3_1" />
<path d="M302,826.4l0,73.3" class="g3_1" />
<path d="M335,826.4l0,73.4" class="g3_1" />
<path d="M555.2,826.4l0,73.4" class="g3_1" />
<path d="M720.3,826.4l0,73.4" class="g3_1" />
<path d="M434.6,753.1l0,73.3" class="g3_1" />
<path d="M456.6,753.1l0,73.3" class="g3_1" />
<path d="M467.3,753.1l0,73.3" class="g3_1" />
<path d="M489.6,753.1l0,73.3" class="g3_1" />
<path d="M599.4,753.1l0,73.3" class="g3_1" />
<path d="M720.4,753.1l0,73.3" class="g3_1" />
<path d="M753.4,752.5l0,74" class="g3_1" />
<path d="M578.7,771.6l0,54.1" class="g5_1" />
<path fill-rule="evenodd" d="M576.8,771.5c0,-0.1,0,-0.2,0.1,-0.2c0.1,-0.1,0.2,-0.2,0.3,-0.2c0.1,0,0.2,0.1,0.3,0.2c0,0,0.1,0.1,0.1,0.2c0,0.1,-0.1,0.2,-0.1,0.3c-0.1,0.1,-0.2,0.1,-0.3,0.1c-0.1,0,-0.2,0,-0.3,-0.1c-0.1,-0.1,-0.1,-0.2,-0.1,-0.3Z" class="g2_1" />
<path fill-rule="evenodd" d="M576.8,826.5c0,-0.1,0,-0.2,0.1,-0.3c0.1,0,0.2,-0.1,0.3,-0.1c0.1,0,0.2,0.1,0.3,0.1c0,0.1,0.1,0.2,0.1,0.3c0,0.1,-0.1,0.2,-0.1,0.3c-0.1,0.1,-0.2,0.1,-0.3,0.1c-0.1,0,-0.2,0,-0.3,-0.1c-0.1,-0.1,-0.1,-0.2,-0.1,-0.3Z" class="g2_1" />
<path d="M699.8,771.6l0,54.1" class="g5_1" />
<path fill-rule="evenodd" d="M697.9,771.5c0,-0.1,0,-0.2,0.1,-0.2c0.1,-0.1,0.2,-0.2,0.3,-0.2c0.1,0,0.2,0.1,0.2,0.2c0.1,0,0.1,0.1,0.1,0.2c0,0.1,0,0.2,-0.1,0.3c0,0.1,-0.1,0.1,-0.2,0.1c-0.1,0,-0.2,0,-0.3,-0.1c-0.1,-0.1,-0.1,-0.2,-0.1,-0.3Z" class="g2_1" />
<path fill-rule="evenodd" d="M697.9,826.5c0,-0.1,0,-0.2,0.1,-0.3c0.1,0,0.2,-0.1,0.3,-0.1c0.1,0,0.2,0.1,0.2,0.1c0.1,0.1,0.1,0.2,0.1,0.3c0,0.1,0,0.2,-0.1,0.3c0,0.1,-0.1,0.1,-0.2,0.1c-0.1,0,-0.2,0,-0.3,-0.1c-0.1,-0.1,-0.1,-0.2,-0.1,-0.3Z" class="g2_1" />
<path d="M782.5,313.3l0,439.9" class="g3_1" />
<path d="M864.7,331.7l0,420.7" class="g5_1" />
<path fill-rule="evenodd" d="M868.9,331.6c0,-0.1,0.1,-0.2,0.1,-0.2c0.1,-0.1,0.2,-0.2,0.3,-0.2c0.1,0,0.2,0.1,0.3,0.2c0,0,0.1,0.1,0.1,0.2c0,0.1,-0.1,0.2,-0.1,0.3c-0.1,0.1,-0.2,0.1,-0.3,0.1c-0.1,0,-0.2,0,-0.3,-0.1c0,-0.1,-0.1,-0.2,-0.1,-0.3Z" class="g2_1" />
<path fill-rule="evenodd" d="M868.9,753.2c0,-0.1,0.1,-0.2,0.1,-0.3c0.1,0,0.2,-0.1,0.3,-0.1c0.1,0,0.2,0.1,0.3,0.1c0,0.1,0.1,0.2,0.1,0.3c0,0.1,-0.1,0.2,-0.1,0.3c-0.1,0,-0.2,0.1,-0.3,0.1c-0.1,0,-0.2,-0.1,-0.3,-0.1c0,-0.1,-0.1,-0.2,-0.1,-0.3Z" class="g2_1" />
<path d="M672.5,313.1l0,440.1" class="g3_1" />
<path d="M584.4,313.3l0,439.9" class="g3_1" />
<path d="M507.1,313.1l0,440" class="g3_1" />
<path d="M342.3,313.3l0,421.6" class="g3_1" />
<path d="M754.6,331.7l0,420.6" class="g5_1" />
<path fill-rule="evenodd" d="M758.9,331.6c0,-0.1,0,-0.2,0.1,-0.3c0,0,0.1,-0.1,0.2,-0.1c0.1,0,0.2,0.1,0.3,0.1c0.1,0.1,0.1,0.2,0.1,0.3c0,0.1,0,0.2,-0.1,0.3c-0.1,0,-0.2,0.1,-0.3,0.1c-0.1,0,-0.2,-0.1,-0.2,-0.1c-0.1,-0.1,-0.1,-0.2,-0.1,-0.3Z" class="g2_1" />
<path fill-rule="evenodd" d="M758.9,753.2c0,-0.1,0,-0.2,0.1,-0.3c0,-0.1,0.1,-0.1,0.2,-0.1c0.1,0,0.2,0,0.3,0.1c0.1,0.1,0.1,0.2,0.1,0.3c0,0.1,0,0.2,-0.1,0.3c-0.1,0,-0.2,0.1,-0.3,0.1c-0.1,0,-0.2,-0.1,-0.2,-0.1c-0.1,-0.1,-0.1,-0.2,-0.1,-0.3Z" class="g2_1" />
<path d="M891,313.3l0,439.9" class="g3_1" />
<path d="M357.1,899.7l0,73.7" class="g3_1" />
<path d="M28,973.1l0,36.7" class="g3_1" />
<path d="M116.1,973.1l0,36.7" class="g3_1" />
<path d="M204.2,973.1l0,36.7" class="g3_1" />
<path d="M292.2,973.1l0,36.7" class="g3_1" />
<path d="M380.3,973.1l0,36.7" class="g3_1" />
<path d="M468.3,973.1l0,36.7" class="g3_1" />
<path d="M556.4,973.1l0,36.7" class="g3_1" />
<path d="M644.4,973.1l0,36.7" class="g3_1" />
<path d="M732.5,973.1l0,36.7" class="g3_1" />
<path d="M820.9,973.3l0,36.7" class="g3_1" />
<path d="M820.1,1028.9l0,17.6" class="g3_1" />
<path d="M797.4,1028.8l0,17.7" class="g3_1" />
<path d="M774.9,1028.8l0,17.7" class="g3_1" />
<path d="M765,1046.5l0,18.3" class="g3_1" />
<path d="M765,1083.1l0,18.4" class="g3_1" />
<path d="M765,1119.8l0,18.3" class="g3_1" />
<path d="M765,1156.4l0,18.1" class="g3_1" />
<path d="M622.9,1101.5l0,18.3" class="g3_1" />
<path d="M622.9,1138.1l0,18.3" class="g3_1" />
<path d="M644.9,1028.9l0,17.6" class="g3_1" />
<path d="M820.1,1064.8l0,18.3" class="g3_1" />
<path d="M797.4,1064.8l0,18.3" class="g3_1" />
<path d="M774.9,1064.8l0,18.3" class="g3_1" />
<path d="M820.1,1101.5l0,18.3" class="g3_1" />
<path d="M797.4,1101.5l0,18.3" class="g3_1" />
<path d="M774.7,1101.5l0,18.3" class="g3_1" />
<path d="M820.1,1138.1l0,18.3" class="g3_1" />
<path d="M797.4,1138.1l0,18.3" class="g3_1" />
<path d="M774.9,1138.1l0,18.3" class="g3_1" />
<path d="M644.9,1064.8l0,18.3" class="g3_1" />
<path d="M644.9,1101.5l0,18.3" class="g3_1" />
<path d="M644.9,1138.1l0,18.3" class="g3_1" />
<path d="M523.8,1009.8l0,19.1" class="g3_1" />
<path d="M425,1009.8l0,19.1" class="g3_1" />
<path d="M347.2,1009.8l0,19.1" class="g3_1" />
<path d="M270.2,1009.8l0,19" class="g3_1" />
<path d="M193.4,1009.8l0,18.9" class="g3_1" />
<path d="M138.5,1009.7l0,18.9" class="g3_1" />
<path d="M58.6,1009.8l0,19.1" class="g3_1" />
<path d="M545.2,1009.8l0,19" class="g3_1" />
<path d="M468.4,1010l0.1,18.9" class="g3_1" />
<path d="M721.3,1009.8l0,19" class="g3_1" />
<path d="M633.3,1010l0,19" class="g3_1" />
<path fill-rule="evenodd" d="M511.8,1101.5l57.3,0.4l0,-72.7l-57.3,-0.4l0,72.7Z" class="g6_1" />
<path d="M16.3,1100.6l495.5,0.1l0,-71.8L16.1,1028.8" class="g3_1" />
<path d="M16.9,1046.5l494.3,0" class="g3_1" />
<path d="M16.5,1064.8l495,0" class="g3_1" />
<path d="M16.5,1083.1l495,0" class="g3_1" />
<path d="M105.5,1046.5l0,18.4" class="g3_1" />
<path d="M182.6,1028.8l0,72" class="g3_1" />
<path d="M347.2,1029l0,72" class="g3_1" />
<path d="M324.3,1100.8l0,73.9" class="g3_1" />
<path d="M304,1100.7l0,73.8" class="g3_1" />
<path d="M281.7,1100.7l0,74" class="g3_1" />
<path d="M435.6,1101.1l0,73.6" class="g3_1" />
<path d="M105.5,1082.5l0,18" class="g3_1" />
<path d="M270.6,1045.7l0,19.1" class="g3_1" />
<path d="M270.6,1082.5l0,18.1" class="g3_1" />
<path d="M566.3,1138.1l353.1,0" class="g3_1" />
<path d="M569.2,1064.8l350.3,0" class="g3_1" />
<path d="M435.4,1083.1l0,18.4" class="g3_1" />
<path d="M435.7,1046.5l0,18.3" class="g3_1" />
<path d="M269.4,753.1l0,73.4" class="g3_1" />
<path fill-rule="evenodd" d="M346.5,185l110.1,0l0,-18.3l-110.1,0l0,18.3Z" class="g2_1" />
<path d="M643.4,899.8l0,73.2" class="g3_1" />
<path d="M16,38.3l550.1,0" class="g4_1" />
<path d="M16.3,56.7l549.9,0" class="g4_1" />
<path d="M16.4,75l549.7,0" class="g4_1" />
<path d="M885.6,111.9l0,17.8" class="g3_1" />
<path d="M764.4,111.9l0,17.8" class="g3_1" />
<path d="M753.4,111.9l0,17.8" class="g3_1" />
<path d="M720.4,112l0,17.8" class="g3_1" />
<path d="M709.4,111.9l0,17.8" class="g3_1" />
<path d="M357.5,111.7l0,18.3" class="g3_1" />
<path d="M456.6,166.6l0,55" class="g3_1" />
<path d="M116.2,750.1l33.5,0" class="g3_1" />
<path d="M182.1,750.1l33.5,0" class="g3_1" />
<path fill-rule="evenodd" d="M584.4,753.2l88.1,0l0,-18.3l-88.1,0l0,18.3Z" class="g2_1" />
<path fill-rule="evenodd" d="M643.1,749.2l20.9,0L664,739l-20.9,0l0,10.2Z" class="g6_1" />
<path fill-rule="evenodd" d="M663.2,736.8l7.6,7l-7.6,7.7Z" class="g6_1" />
<path d="M567,1100.6l-55.9,0" class="g3_1" />
<path fill-rule="evenodd" d="M567.3,1173.8l1.9,0l0,-63.8l-1.9,0l0,63.8Z" class="g6_1" />
<path d="M291.1,20l0,73.3" class="g3_1" />
<path d="M16.2,1174.3l903.4,0l0,-1153.9l-903.4,0l0,1153.9Z" class="g3_1" />
<path d="M27.8,111.7l0,17.9" class="g3_1" />
<path d="M874.5,111.7l0,17.9" class="g3_1" />
<path d="M279.6,148l0,18.4" class="g3_1" />
<path d="M404.7,1181.9c7.3,5.9,16,5.9,25.4,2.2c8,-3.2,19.6,-12.5,30.4,-6.3c-7.1,-2.3,-10.7,0.6,-13.3,2.3c-5.7,3.9,-13,9.1,-19.7,10.8c-5,1.2,-8.7,1.9,-14.2,-1.1c-4,-2.2,-5.3,-4.9,-8.6,-7.9" class="g7_1" />
<path fill-rule="evenodd" d="M404.7,1181.9c7.3,5.9,16,5.9,25.4,2.2c8,-3.2,19.6,-12.5,30.4,-6.3c-7.1,-2.3,-10.7,0.6,-13.3,2.3c-5.7,3.9,-13,9.1,-19.7,10.8c-5,1.2,-8.7,1.9,-14.2,-1.1c-4,-2.2,-5.3,-4.9,-8.6,-7.9Z" class="g8_1" />
<path d="M569.4,1028.9l-0.1,145.8" class="g3_1" />
<path d="M566.3,20.3l0,72.9" class="g3_1" />
<path d="M16,93.1l903.4,0" class="g3_1" />
<path d="M809.4,1009.8l0,19" class="g3_1" />
<path d="M511.1,1028.9l408.4,-0.1" class="g3_1" />
<path d="M567.1,1028.8l0,145.9" class="g3_1" />
<path d="M126.1,93.1l0,18.4" class="g3_1" />
<path d="M137.5,93.1l0,18.4" class="g3_1" />
</svg>